<svg xmlns="http://www.w3.org/2000/svg" version="1.2" viewBox="0 0 386 386" preserveAspectRatio="xMidYMid meet" baseProfile="tiny-ps" xml:space="preserve"><title>yenasoy</title>
<path d="M0 0 C1.54163175 3.0832635 1.29747535 5.60878099 1 9 C-2.03612935 12.03476255 -5.14951692 12.70945145 -9.28125 13.54296875 C-9.91004059 13.67217712 -10.53883118 13.8013855 -11.18667603 13.93450928 C-13.2891105 14.36287899 -15.39434647 14.77526857 -17.5 15.1875 C-19.00384922 15.49044241 -20.50759018 15.79392267 -22.01123047 16.09790039 C-30.62656399 17.82368593 -39.26198111 19.42300281 -47.9140625 20.953125 C-49.29362877 21.19711281 -49.29362877 21.19711281 -50.70106506 21.44602966 C-51.62511642 21.60942337 -52.54916779 21.77281708 -53.5012207 21.94116211 C-68.70006207 24.63077096 -83.82663321 27.40766246 -98.8125 31.125 C-100.04307129 31.425271 -101.27364258 31.72554199 -102.54150391 32.03491211 C-111.36073929 34.30266337 -119.65052302 37.39090854 -128 41 C-128.78608643 41.32500488 -129.57217285 41.65000977 -130.38208008 41.98486328 C-132.37941974 42.97512709 -132.37941974 42.97512709 -132.75 46.125 C-132.8325 47.07375 -132.915 48.0225 -133 49 C-125.03267045 55.80032468 -115.60502887 58.09716355 -105.51171875 59.88671875 C-104.09841278 60.14004219 -104.09841278 60.14004219 -102.65655518 60.39848328 C-90.33538457 62.54286907 -77.93000412 64.11794838 -65.53271484 65.74734497 C74.15555608 84.13527193 74.15555608 84.13527193 98 112 C104.65893391 120.8493727 108.01104862 128.8621579 107 140 C104.61994993 154.9510418 95.36336166 165.26777857 83.5625 173.9375 C57.67706024 192.27762414 24.72401697 200.39555884 -5.625 208 C-15.75233525 210.54362678 -25.7591809 213.32184347 -35.6875 216.5625 C-36.75500488 216.90216797 -37.82250977 217.24183594 -38.92236328 217.59179688 C-48.37918568 220.76649116 -58.06992933 224.65334959 -64 233 C-65.87116901 237.36084159 -66.49922355 241.55763809 -65.0625 246.125 C-59.17133587 259.03433357 -43.7372557 264.48033183 -31.34033203 269.15625 C-20.99157303 272.88724427 -10.33362012 275.66119794 0.29760742 278.45239258 C82.13209375 300.01097295 82.13209375 300.01097295 100.65625 326.35546875 C101.91065966 328.53245295 102.99554575 330.6984896 104 333 C104.45375 334.03125 104.9075 335.0625 105.375 336.125 C106.17038906 339.78378966 105.95508739 342.38431201 105 346 C102.18828047 348.63908389 99.82042333 349.48906316 96.0546875 350.09765625 C95.05695313 350.25943359 94.05921875 350.42121094 93.03125 350.58789062 C91.9896875 350.74451172 90.948125 350.90113281 89.875 351.0625 C88.91851562 351.22298828 87.96203125 351.38347656 86.9765625 351.54882812 C65.69120378 354.87800797 44.1607071 355.33408107 22.66015625 355.26074219 C19.303989 355.24937189 15.94814012 355.25612274 12.5919838 355.26762772 C-46.79652978 355.43962496 -112.62406686 348.40779941 -164 316 C-164.59264648 315.62665527 -165.18529297 315.25331055 -165.79589844 314.86865234 C-177.27211277 307.51518205 -188.56673218 298.78673791 -197 288 C-198.10988281 286.62714844 -198.10988281 286.62714844 -199.2421875 285.2265625 C-204.25904471 278.82801347 -208.17156696 272.63122326 -211 265 C-211.31839844 264.175 -211.63679688 263.35 -211.96484375 262.5 C-216.21779266 249.64315904 -215.11144856 235.38478848 -210 223 C-209.45666016 221.67935547 -209.45666016 221.67935547 -208.90234375 220.33203125 C-197.77783171 196.00894561 -172.28620291 181.92417782 -148.3359375 172.86328125 C-126.50848284 165 -126.50848284 165 -117 165 C-116.67 164.34 -116.34 163.68 -116 163 C-114.25686646 162.64347839 -114.25686646 162.64347839 -112.01220703 162.47729492 C-107.2085512 162.04210092 -102.54113147 161.26074555 -97.8046875 160.36328125 C-96.51751831 160.1234552 -96.51751831 160.1234552 -95.2043457 159.87878418 C-92.42721148 159.36027415 -89.65105004 158.83678143 -86.875 158.3125 C-84.94418842 157.94938184 -83.01336145 157.58634548 -81.08251953 157.22338867 C-77.21085286 156.49483095 -73.33967647 155.76372938 -69.46875 155.03125 C-65.31880461 154.24688859 -61.1669375 153.473717 -57.01361084 152.70748901 C-28.85758018 148.77745058 -28.85758018 148.77745058 -4.4375 135.625 C-2.45837849 132.01095203 -2.21647191 130.06010012 -3 126 C-17.66672941 107.57257075 -61.37978848 106.10423024 -82.5625 102.375 C-85.18453239 101.90784789 -87.80610273 101.43815001 -90.42773438 100.96875 C-103.36966322 98.65928009 -116.31931244 96.40625169 -129.29640198 94.30233765 C-135.68790737 93.2572966 -141.98875174 92.00643355 -148.29296875 90.515625 C-150.93446887 90.01248212 -153.31876973 89.90196599 -156 90 C-156 89.34 -156 88.68 -156 88 C-157.00160156 87.87753906 -158.00320312 87.75507812 -159.03515625 87.62890625 C-174.76764508 85.35884826 -193.97175944 77.7835995 -205 66 C-209.05549986 60.21698653 -211.01923552 55.02140027 -210 48 C-206.03940872 37.20387046 -197.9424882 30.93358021 -187.88916016 25.95458984 C-174.14710948 19.60819577 -159.76689323 16.06761477 -145 13 C-143.93394531 12.77715332 -142.86789063 12.55430664 -141.76953125 12.32470703 C-123.31039281 8.53657564 -104.71299097 6.08749577 -86 4 C-84.73752441 3.85820312 -83.47504883 3.71640625 -82.17431641 3.5703125 C-15.9061758 -3.74965405 -15.9061758 -3.74965405 0 0 Z " fill="#5E9E9A" transform="translate(246,22)"/>
<path d="M0 0 C-6.89669863 3.62994017 -13.84876051 6.63453137 -21.1875 9.25 C-22.25556885 9.6320459 -23.3236377 10.0140918 -24.42407227 10.40771484 C-43.56042986 17.11909609 -63.20140966 22.31481636 -82.8046875 27.45947266 C-90.86134281 29.60631352 -98.74872912 32.1337209 -106.59423828 34.95556641 C-107.39716309 35.23835449 -108.20008789 35.52114258 -109.02734375 35.8125 C-109.72593506 36.06644531 -110.42452637 36.32039063 -111.14428711 36.58203125 C-113 37 -113 37 -116 36 C-100.86227146 29.8411328 -85.20585901 25.55323981 -69.37109375 21.57421875 C-56.40390617 18.30825511 -43.71942034 14.44995665 -31.02880859 10.25073242 C-30.37736374 10.03594742 -29.72591888 9.82116241 -29.05473328 9.59986877 C-27.27134435 9.01071338 -25.48950386 8.41687682 -23.70776367 7.82275391 C-21 7 -21 7 -19 7 C-19 6.34 -19 5.68 -19 5 C-3.84090909 -1.92045455 -3.84090909 -1.92045455 0 0 Z " fill="#C3D8D4" transform="translate(314,205)"/>
<path d="M0 0 C6.34752129 1.23854074 9.40544713 4.93913768 13 10 C18.25914691 19.03113146 20.16763092 26.70230676 18.5 37.125 C18.335 37.74375 18.17 38.3625 18 39 C17.67 39 17.34 39 17 39 C17.02320313 38.09378906 17.04640625 37.18757813 17.0703125 36.25390625 C17.17494152 29.19144716 17.17619286 22.75765152 15 16 C14.01 15.67 13.02 15.34 12 15 C10.60546875 13.328125 10.60546875 13.328125 9.1875 11.25 C7.2018324 8.47305132 5.30556115 6.24156601 2.625 4.125 C1.75875 3.42375 0.8925 2.7225 0 2 C0 1.34 0 0.68 0 0 Z " fill="#96BAB4" transform="translate(334,128)"/>
<path d="M0 0 C0.66 0.33 1.32 0.66 2 1 C0.700625 1.7734375 0.700625 1.7734375 -0.625 2.5625 C-3.87249265 4.71214052 -6.16890204 7.30258132 -8.60546875 10.31640625 C-10 12 -10 12 -11.61328125 13.58984375 C-15.04641797 17.08100532 -14.19565004 21.39383295 -14.16796875 26 C-13.98412711 29.28349721 -13.3366855 31.99245762 -12 35 C-15.94011611 31.59717245 -16.87154555 28.30595356 -17.375 23.1875 C-17.20079745 16.59268916 -13.51071148 10.6326226 -9 6 C-6.0747703 3.87578641 -3.06950093 1.90859994 0 0 Z " fill="#C1D6D0" transform="translate(53,51)"/>
<path d="M0 0 C-2.75676311 1.83784207 -4.33146991 2.48592586 -7.45703125 3.25390625 C-8.32263672 3.46853516 -9.18824219 3.68316406 -10.08007812 3.90429688 C-10.98177734 4.12150391 -11.88347656 4.33871094 -12.8125 4.5625 C-13.70259766 4.78357422 -14.59269531 5.00464844 -15.50976562 5.23242188 C-19.98808995 6.3312546 -24.43345026 7.32822657 -29 8 C-26.49484216 5.49484216 -24.38931835 4.94900914 -21 4 C-19.68 4 -18.36 4 -17 4 C-17 3.34 -17 2.68 -17 2 C-10.91708727 -0.1663492 -6.3552245 -1.5197276 0 0 Z " fill="#9DC1BC" transform="translate(156,50)"/>
<path d="M0 0 C-2.475 1.485 -2.475 1.485 -5 3 C-3.68 2.67 -2.36 2.34 -1 2 C-5.25925764 7.20575934 -12.74826461 7.69408194 -19 9 C-16.31666796 5.8950015 -13.0761823 4.19918044 -9.5 2.25 C-8.3553125 1.61578125 -7.210625 0.9815625 -6.03125 0.328125 C-3 -1 -3 -1 0 0 Z " fill="#93BCB6" transform="translate(88,201)"/>
<path d="M0 0 C4.14089648 0.51761206 7.29895209 2.04518689 10.9375 3.9609375 C12.88689419 4.94301866 14.83593167 5.72685326 16.875 6.5 C20 8 20 8 21.4375 10.1875 C21.623125 10.785625 21.80875 11.38375 22 12 C17.15984684 10.23465356 12.7164873 7.80463275 8.1875 5.375 C7.39923828 4.95476562 6.61097656 4.53453125 5.79882812 4.1015625 C3.86464674 3.0699991 1.93176017 2.03608828 0 1 C0 0.67 0 0.34 0 0 Z " fill="#539086" transform="translate(308,324)"/>
<path d="M0 0 C-1.56119422 0.79423861 -3.12401964 1.58527123 -4.6875 2.375 C-5.55761719 2.81585938 -6.42773438 3.25671875 -7.32421875 3.7109375 C-11.51827729 5.73143285 -14.27628914 7 -19 7 C-19 6.34 -19 5.68 -19 5 C-3.84090909 -1.92045455 -3.84090909 -1.92045455 0 0 Z " fill="#94BAB6" transform="translate(314,205)"/>
<path d="M0 0 C0.66 0.33 1.32 0.66 2 1 C1.01663902 2.34565187 0.0111222 3.67508126 -1 5 C-1.58007812 5.77537109 -1.58007812 5.77537109 -2.171875 6.56640625 C-5.47953254 10.80306636 -5.47953254 10.80306636 -8.3125 11.875 C-8.869375 11.91625 -9.42625 11.9575 -10 12 C-8.52278578 8.54798361 -6.56205999 6.35038064 -3.875 3.75 C-3.15054688 3.04359375 -2.42609375 2.3371875 -1.6796875 1.609375 C-1.12539063 1.07828125 -0.57109375 0.5471875 0 0 Z " fill="#40877D" transform="translate(57,219)"/>
<path d="M0 0 C0.66 0.33 1.32 0.66 2 1 C1.13375 1.515625 0.2675 2.03125 -0.625 2.5625 C-4.46201739 5.09310433 -7.16675882 8.42328418 -10 12 C-10.33 10.68 -10.66 9.36 -11 8 C-7.37 5.36 -3.74 2.72 0 0 Z " fill="#95BAB3" transform="translate(53,51)"/>
<path d="M0 0 C0.886875 0.103125 1.77375 0.20625 2.6875 0.3125 C-0.19199147 2.55210447 -3.07992026 4.61114224 -6.3125 6.3125 C-6.9725 5.9825 -7.6325 5.6525 -8.3125 5.3125 C-4.12788462 0.38942308 -4.12788462 0.38942308 0 0 Z " fill="#60978D" transform="translate(59.3125,48.6875)"/>
<path d="M0 0 C-6.4 3.07692308 -6.4 3.07692308 -9.4375 2.6875 C-9.953125 2.460625 -10.46875 2.23375 -11 2 C-7.06425135 -0.62383243 -4.54354105 -1.51451368 0 0 Z " fill="#8DB5AE" transform="translate(127,59)"/>
<path d="M0 0 C1 4 1 4 1 4 Z " fill="#2AD4D4" transform="translate(30,269)"/>
<path d="M0 0 C4 1 4 1 4 1 Z " fill="#94B9B9" transform="translate(127,119)"/>
<path d="" fill="#2AD4D4" transform="translate(0,0)"/>
<path d="" fill="#00FFFF" transform="translate(0,0)"/>
<path d="M0 0 C3 1 3 1 3 1 Z " fill="#E2E2E2" transform="translate(166,177)"/>
<path d="M0 0 C2 1 2 1 2 1 Z " fill="#6A9494" transform="translate(209,239)"/>
<path d="M0 0 C2 1 2 1 2 1 Z " fill="#3FBFBF" transform="translate(111,116)"/>
<path d="" fill="#00FFFF" transform="translate(0,0)"/>
<path d="" fill="#00FFFF" transform="translate(0,0)"/>
<path d="" fill="#00FFFF" transform="translate(0,0)"/>
<path d="" fill="#00FFFF" transform="translate(0,0)"/>
<path d="" fill="#7F7F7F" transform="translate(0,0)"/>
<path d="" fill="#55AAAA" transform="translate(0,0)"/>
<path d="" fill="#00FFFF" transform="translate(0,0)"/>
<path d="" fill="#00FFFF" transform="translate(0,0)"/>
<path d="" fill="#00FFFF" transform="translate(0,0)"/>
<path d="" fill="#00FFFF" transform="translate(0,0)"/>
<path d="" fill="#7F7F7F" transform="translate(0,0)"/>
<path d="" fill="#00FFFF" transform="translate(0,0)"/>
<path d="" fill="#00FFFF" transform="translate(0,0)"/>
<path d="" fill="#7F7F7F" transform="translate(0,0)"/>
<path d="" fill="#00FFFF" transform="translate(0,0)"/>
<path d="" fill="#00FFFF" transform="translate(0,0)"/>
<path d="" fill="#00FFFF" transform="translate(0,0)"/>
<path d="" fill="#7F7F7F" transform="translate(0,0)"/>
<path d="" fill="#00FFFF" transform="translate(0,0)"/>
<path d="" fill="#7F7F7F" transform="translate(0,0)"/>
<path d="" fill="#00FFFF" transform="translate(0,0)"/>
<path d="" fill="#00FFFF" transform="translate(0,0)"/>
<path d="" fill="#00FFFF" transform="translate(0,0)"/>
<path d="" fill="#00FFFF" transform="translate(0,0)"/>
<path d="" fill="#00FFFF" transform="translate(0,0)"/>
<path d="" fill="#7F7F7F" transform="translate(0,0)"/>
<path d="" fill="#00FFFF" transform="translate(0,0)"/>
<path d="" fill="#00FFFF" transform="translate(0,0)"/>
<path d="" fill="#55AAAA" transform="translate(0,0)"/>
<path d="" fill="#00FFFF" transform="translate(0,0)"/>
<path d="" fill="#00FFFF" transform="translate(0,0)"/>
<path d="" fill="#00FFFF" transform="translate(0,0)"/>
<path d="" fill="#7F7F7F" transform="translate(0,0)"/>
<path d="" fill="#00FFFF" transform="translate(0,0)"/>
<path d="" fill="#00FFFF" transform="translate(0,0)"/>
<path d="" fill="#00FFFF" transform="translate(0,0)"/>
<path d="" fill="#AAAAAA" transform="translate(0,0)"/>
<path d="" fill="#00FFFF" transform="translate(0,0)"/>
<path d="" fill="#00FFFF" transform="translate(0,0)"/>
<path d="" fill="#7F7F7F" transform="translate(0,0)"/>
<path d="" fill="#7F7F7F" transform="translate(0,0)"/>
<path d="" fill="#FFFFFF" transform="translate(0,0)"/>
<path d="" fill="#00FFFF" transform="translate(0,0)"/>
<path d="" fill="#00FFFF" transform="translate(0,0)"/>
<path d="" fill="#7FBF7F" transform="translate(0,0)"/>
<path d="" fill="#7F7F7F" transform="translate(0,0)"/>
<path d="" fill="#7F7F7F" transform="translate(0,0)"/>
<path d="" fill="#00FFFF" transform="translate(0,0)"/>
<path d="" fill="#00FFFF" transform="translate(0,0)"/>
<path d="" fill="#7F7F7F" transform="translate(0,0)"/>
<path d="" fill="#00FFFF" transform="translate(0,0)"/>
<path d="" fill="#00FFFF" transform="translate(0,0)"/>
<path d="" fill="#7F7F7F" transform="translate(0,0)"/>
<path d="" fill="#AAAAAA" transform="translate(0,0)"/>
<path d="" fill="#7F7F7F" transform="translate(0,0)"/>
<path d="" fill="#00FFFF" transform="translate(0,0)"/>
<path d="" fill="#7FBFBF" transform="translate(0,0)"/>
<path d="" fill="#00FFFF" transform="translate(0,0)"/>
<path d="" fill="#00FFFF" transform="translate(0,0)"/>
<path d="" fill="#00FFFF" transform="translate(0,0)"/>
<path d="" fill="#7F7F7F" transform="translate(0,0)"/>
<path d="" fill="#00FFFF" transform="translate(0,0)"/>
</svg>